<mxfile host="Electron" agent="Mozilla/5.0 (Windows NT 10.0; Win64; x64) AppleWebKit/537.36 (KHTML, like Gecko) draw.io/25.0.2 Chrome/128.0.6613.186 Electron/32.2.5 Safari/537.36" version="25.0.2">
  <diagram name="Page-1" id="pCO-wO_WuTZd0U47I5Uy">
    <mxGraphModel dx="819" dy="546" grid="1" gridSize="10" guides="1" tooltips="1" connect="1" arrows="1" fold="1" page="1" pageScale="1" pageWidth="850" pageHeight="1100" math="0" shadow="0">
      <root>
        <mxCell id="0" />
        <mxCell id="1" parent="0" />
        <mxCell id="9lJfcO_MAp3hbMYmv9Gh-141" value="" style="rounded=0;whiteSpace=wrap;html=1;fillColor=#e1d5e7;strokeColor=#9673a6;" vertex="1" parent="1">
          <mxGeometry x="335" y="75" width="255" height="295" as="geometry" />
        </mxCell>
        <mxCell id="9lJfcO_MAp3hbMYmv9Gh-1" value="" style="rounded=0;whiteSpace=wrap;html=1;fillColor=#f8cecc;strokeColor=#b85450;" vertex="1" parent="1">
          <mxGeometry x="596.63" y="160" width="243.37" height="250" as="geometry" />
        </mxCell>
        <mxCell id="9lJfcO_MAp3hbMYmv9Gh-2" value="" style="rounded=0;whiteSpace=wrap;html=1;fillColor=#fff2cc;strokeColor=#d6b656;" vertex="1" parent="1">
          <mxGeometry x="620" y="80" width="183.37" height="70" as="geometry" />
        </mxCell>
        <mxCell id="9lJfcO_MAp3hbMYmv9Gh-4" value="" style="endArrow=none;html=1;rounded=0;entryX=0.959;entryY=0.08;entryDx=0;entryDy=0;entryPerimeter=0;" edge="1" parent="1" source="9lJfcO_MAp3hbMYmv9Gh-112" target="9lJfcO_MAp3hbMYmv9Gh-1">
          <mxGeometry width="50" height="50" relative="1" as="geometry">
            <mxPoint x="535" y="180" as="sourcePoint" />
            <mxPoint x="775" y="180" as="targetPoint" />
          </mxGeometry>
        </mxCell>
        <mxCell id="9lJfcO_MAp3hbMYmv9Gh-5" value="" style="rounded=0;whiteSpace=wrap;html=1;fillColor=#ffe6cc;strokeColor=#d79b00;" vertex="1" parent="1">
          <mxGeometry x="45" y="70" width="220" height="60" as="geometry" />
        </mxCell>
        <mxCell id="9lJfcO_MAp3hbMYmv9Gh-6" value="" style="rounded=0;whiteSpace=wrap;html=1;fillColor=#dae8fc;strokeColor=#6c8ebf;" vertex="1" parent="1">
          <mxGeometry x="25" y="140" width="305" height="230" as="geometry" />
        </mxCell>
        <mxCell id="9lJfcO_MAp3hbMYmv9Gh-7" value="Pr1" style="whiteSpace=wrap;html=1;aspect=fixed;" vertex="1" parent="1">
          <mxGeometry x="55" y="80" width="40" height="40" as="geometry" />
        </mxCell>
        <mxCell id="9lJfcO_MAp3hbMYmv9Gh-8" value="Pr2" style="whiteSpace=wrap;html=1;aspect=fixed;" vertex="1" parent="1">
          <mxGeometry x="135" y="80" width="40" height="40" as="geometry" />
        </mxCell>
        <mxCell id="9lJfcO_MAp3hbMYmv9Gh-9" value="Pr3" style="whiteSpace=wrap;html=1;aspect=fixed;" vertex="1" parent="1">
          <mxGeometry x="215" y="80" width="40" height="40" as="geometry" />
        </mxCell>
        <mxCell id="9lJfcO_MAp3hbMYmv9Gh-10" value="" style="endArrow=none;html=1;rounded=0;" edge="1" parent="1" source="9lJfcO_MAp3hbMYmv9Gh-44">
          <mxGeometry width="50" height="50" relative="1" as="geometry">
            <mxPoint x="55" y="160" as="sourcePoint" />
            <mxPoint x="370" y="160" as="targetPoint" />
          </mxGeometry>
        </mxCell>
        <mxCell id="9lJfcO_MAp3hbMYmv9Gh-11" value="" style="endArrow=none;html=1;rounded=0;" edge="1" parent="1" source="9lJfcO_MAp3hbMYmv9Gh-125">
          <mxGeometry width="50" height="50" relative="1" as="geometry">
            <mxPoint x="55" y="200" as="sourcePoint" />
            <mxPoint x="370" y="200" as="targetPoint" />
          </mxGeometry>
        </mxCell>
        <mxCell id="9lJfcO_MAp3hbMYmv9Gh-12" value="B1" style="text;html=1;align=center;verticalAlign=middle;whiteSpace=wrap;rounded=0;" vertex="1" parent="1">
          <mxGeometry x="25" y="140" width="30" height="30" as="geometry" />
        </mxCell>
        <mxCell id="9lJfcO_MAp3hbMYmv9Gh-13" value="B2" style="text;html=1;align=center;verticalAlign=middle;whiteSpace=wrap;rounded=0;" vertex="1" parent="1">
          <mxGeometry x="25" y="180" width="30" height="30" as="geometry" />
        </mxCell>
        <mxCell id="9lJfcO_MAp3hbMYmv9Gh-14" value="" style="endArrow=none;html=1;rounded=0;exitX=0.25;exitY=1;exitDx=0;exitDy=0;" edge="1" parent="1" source="9lJfcO_MAp3hbMYmv9Gh-7" target="9lJfcO_MAp3hbMYmv9Gh-46">
          <mxGeometry width="50" height="50" relative="1" as="geometry">
            <mxPoint x="355" y="280" as="sourcePoint" />
            <mxPoint x="65" y="160" as="targetPoint" />
          </mxGeometry>
        </mxCell>
        <mxCell id="9lJfcO_MAp3hbMYmv9Gh-15" value="" style="endArrow=none;html=1;rounded=0;exitX=0.75;exitY=1;exitDx=0;exitDy=0;" edge="1" parent="1" source="9lJfcO_MAp3hbMYmv9Gh-7">
          <mxGeometry width="50" height="50" relative="1" as="geometry">
            <mxPoint x="355" y="280" as="sourcePoint" />
            <mxPoint x="85" y="200" as="targetPoint" />
          </mxGeometry>
        </mxCell>
        <mxCell id="9lJfcO_MAp3hbMYmv9Gh-16" value="" style="endArrow=none;html=1;rounded=0;exitX=0.25;exitY=1;exitDx=0;exitDy=0;" edge="1" parent="1" source="9lJfcO_MAp3hbMYmv9Gh-8">
          <mxGeometry width="50" height="50" relative="1" as="geometry">
            <mxPoint x="355" y="280" as="sourcePoint" />
            <mxPoint x="145" y="160" as="targetPoint" />
          </mxGeometry>
        </mxCell>
        <mxCell id="9lJfcO_MAp3hbMYmv9Gh-17" value="" style="endArrow=none;html=1;rounded=0;exitX=0.75;exitY=1;exitDx=0;exitDy=0;" edge="1" parent="1">
          <mxGeometry width="50" height="50" relative="1" as="geometry">
            <mxPoint x="155" y="120" as="sourcePoint" />
            <mxPoint x="155" y="200" as="targetPoint" />
          </mxGeometry>
        </mxCell>
        <mxCell id="9lJfcO_MAp3hbMYmv9Gh-18" value="" style="endArrow=none;html=1;rounded=0;entryX=0.75;entryY=1;entryDx=0;entryDy=0;" edge="1" parent="1" target="9lJfcO_MAp3hbMYmv9Gh-9">
          <mxGeometry width="50" height="50" relative="1" as="geometry">
            <mxPoint x="245" y="200" as="sourcePoint" />
            <mxPoint x="255" y="170" as="targetPoint" />
          </mxGeometry>
        </mxCell>
        <mxCell id="9lJfcO_MAp3hbMYmv9Gh-19" value="" style="endArrow=none;html=1;rounded=0;entryX=0.25;entryY=1;entryDx=0;entryDy=0;" edge="1" parent="1" target="9lJfcO_MAp3hbMYmv9Gh-9">
          <mxGeometry width="50" height="50" relative="1" as="geometry">
            <mxPoint x="225" y="160" as="sourcePoint" />
            <mxPoint x="255" y="170" as="targetPoint" />
          </mxGeometry>
        </mxCell>
        <mxCell id="9lJfcO_MAp3hbMYmv9Gh-20" value="ะก1" style="whiteSpace=wrap;html=1;aspect=fixed;" vertex="1" parent="1">
          <mxGeometry x="55" y="240" width="40" height="40" as="geometry" />
        </mxCell>
        <mxCell id="9lJfcO_MAp3hbMYmv9Gh-21" value="" style="endArrow=none;html=1;rounded=0;exitX=0.25;exitY=0;exitDx=0;exitDy=0;" edge="1" parent="1" source="9lJfcO_MAp3hbMYmv9Gh-20">
          <mxGeometry width="50" height="50" relative="1" as="geometry">
            <mxPoint x="245" y="270" as="sourcePoint" />
            <mxPoint x="65" y="200" as="targetPoint" />
          </mxGeometry>
        </mxCell>
        <mxCell id="9lJfcO_MAp3hbMYmv9Gh-22" value="" style="endArrow=none;html=1;rounded=0;exitX=0.5;exitY=0;exitDx=0;exitDy=0;" edge="1" parent="1" source="9lJfcO_MAp3hbMYmv9Gh-20">
          <mxGeometry width="50" height="50" relative="1" as="geometry">
            <mxPoint x="245" y="270" as="sourcePoint" />
            <mxPoint x="75" y="160" as="targetPoint" />
          </mxGeometry>
        </mxCell>
        <mxCell id="9lJfcO_MAp3hbMYmv9Gh-23" style="rounded=0;orthogonalLoop=1;jettySize=auto;html=1;entryX=0.5;entryY=1;entryDx=0;entryDy=0;exitX=0.5;exitY=0;exitDx=0;exitDy=0;endArrow=none;endFill=0;fillColor=#6a00ff;strokeColor=#3700CC;strokeWidth=3;" edge="1" parent="1" source="9lJfcO_MAp3hbMYmv9Gh-24" target="9lJfcO_MAp3hbMYmv9Gh-123">
          <mxGeometry relative="1" as="geometry" />
        </mxCell>
        <mxCell id="9lJfcO_MAp3hbMYmv9Gh-24" value="D1" style="whiteSpace=wrap;html=1;aspect=fixed;" vertex="1" parent="1">
          <mxGeometry x="55" y="320" width="40" height="40" as="geometry" />
        </mxCell>
        <mxCell id="9lJfcO_MAp3hbMYmv9Gh-25" style="edgeStyle=orthogonalEdgeStyle;rounded=0;orthogonalLoop=1;jettySize=auto;html=1;entryX=0.5;entryY=1;entryDx=0;entryDy=0;endArrow=none;endFill=0;fillColor=#6a00ff;strokeColor=#3700CC;strokeWidth=3;" edge="1" parent="1" source="9lJfcO_MAp3hbMYmv9Gh-26" target="9lJfcO_MAp3hbMYmv9Gh-123">
          <mxGeometry relative="1" as="geometry" />
        </mxCell>
        <mxCell id="9lJfcO_MAp3hbMYmv9Gh-26" value="D2" style="whiteSpace=wrap;html=1;aspect=fixed;" vertex="1" parent="1">
          <mxGeometry x="135" y="320" width="40" height="40" as="geometry" />
        </mxCell>
        <mxCell id="9lJfcO_MAp3hbMYmv9Gh-27" value="" style="endArrow=none;html=1;rounded=0;exitX=0.5;exitY=1;exitDx=0;exitDy=0;entryX=0.5;entryY=0;entryDx=0;entryDy=0;" edge="1" parent="1" source="9lJfcO_MAp3hbMYmv9Gh-20" target="9lJfcO_MAp3hbMYmv9Gh-24">
          <mxGeometry width="50" height="50" relative="1" as="geometry">
            <mxPoint x="245" y="270" as="sourcePoint" />
            <mxPoint x="295" y="220" as="targetPoint" />
          </mxGeometry>
        </mxCell>
        <mxCell id="9lJfcO_MAp3hbMYmv9Gh-28" value="" style="endArrow=none;html=1;rounded=0;exitX=0.5;exitY=0;exitDx=0;exitDy=0;entryX=0.5;entryY=1;entryDx=0;entryDy=0;" edge="1" parent="1" source="9lJfcO_MAp3hbMYmv9Gh-26" target="9lJfcO_MAp3hbMYmv9Gh-20">
          <mxGeometry width="50" height="50" relative="1" as="geometry">
            <mxPoint x="245" y="270" as="sourcePoint" />
            <mxPoint x="295" y="220" as="targetPoint" />
          </mxGeometry>
        </mxCell>
        <mxCell id="9lJfcO_MAp3hbMYmv9Gh-29" value="ะก2" style="whiteSpace=wrap;html=1;aspect=fixed;" vertex="1" parent="1">
          <mxGeometry x="215" y="240" width="40" height="40" as="geometry" />
        </mxCell>
        <mxCell id="9lJfcO_MAp3hbMYmv9Gh-30" style="rounded=0;orthogonalLoop=1;jettySize=auto;html=1;entryX=0.5;entryY=1;entryDx=0;entryDy=0;exitX=0.5;exitY=0;exitDx=0;exitDy=0;fillColor=#6a00ff;strokeColor=#3700CC;strokeWidth=3;endArrow=none;endFill=0;" edge="1" parent="1" source="9lJfcO_MAp3hbMYmv9Gh-31" target="9lJfcO_MAp3hbMYmv9Gh-123">
          <mxGeometry relative="1" as="geometry" />
        </mxCell>
        <mxCell id="9lJfcO_MAp3hbMYmv9Gh-31" value="D3" style="whiteSpace=wrap;html=1;aspect=fixed;" vertex="1" parent="1">
          <mxGeometry x="215" y="320" width="40" height="40" as="geometry" />
        </mxCell>
        <mxCell id="9lJfcO_MAp3hbMYmv9Gh-32" value="" style="endArrow=none;html=1;rounded=0;exitX=0.5;exitY=1;exitDx=0;exitDy=0;entryX=0.5;entryY=0;entryDx=0;entryDy=0;" edge="1" parent="1" source="9lJfcO_MAp3hbMYmv9Gh-29" target="9lJfcO_MAp3hbMYmv9Gh-31">
          <mxGeometry width="50" height="50" relative="1" as="geometry">
            <mxPoint x="245" y="270" as="sourcePoint" />
            <mxPoint x="295" y="220" as="targetPoint" />
          </mxGeometry>
        </mxCell>
        <mxCell id="9lJfcO_MAp3hbMYmv9Gh-33" value="" style="endArrow=none;html=1;rounded=0;exitX=0.5;exitY=0;exitDx=0;exitDy=0;entryX=0.5;entryY=1;entryDx=0;entryDy=0;" edge="1" parent="1" source="9lJfcO_MAp3hbMYmv9Gh-26" target="9lJfcO_MAp3hbMYmv9Gh-29">
          <mxGeometry width="50" height="50" relative="1" as="geometry">
            <mxPoint x="245" y="270" as="sourcePoint" />
            <mxPoint x="295" y="220" as="targetPoint" />
          </mxGeometry>
        </mxCell>
        <mxCell id="9lJfcO_MAp3hbMYmv9Gh-34" value="" style="endArrow=none;html=1;rounded=0;entryX=0.25;entryY=0;entryDx=0;entryDy=0;" edge="1" parent="1" target="9lJfcO_MAp3hbMYmv9Gh-29">
          <mxGeometry width="50" height="50" relative="1" as="geometry">
            <mxPoint x="225" y="200" as="sourcePoint" />
            <mxPoint x="295" y="220" as="targetPoint" />
          </mxGeometry>
        </mxCell>
        <mxCell id="9lJfcO_MAp3hbMYmv9Gh-35" value="" style="endArrow=none;html=1;rounded=0;exitX=0.5;exitY=0;exitDx=0;exitDy=0;" edge="1" parent="1" source="9lJfcO_MAp3hbMYmv9Gh-29">
          <mxGeometry width="50" height="50" relative="1" as="geometry">
            <mxPoint x="245" y="270" as="sourcePoint" />
            <mxPoint x="235" y="160" as="targetPoint" />
          </mxGeometry>
        </mxCell>
        <mxCell id="9lJfcO_MAp3hbMYmv9Gh-36" style="edgeStyle=orthogonalEdgeStyle;rounded=0;orthogonalLoop=1;jettySize=auto;html=1;endArrow=oval;endFill=1;" edge="1" parent="1" source="9lJfcO_MAp3hbMYmv9Gh-38">
          <mxGeometry relative="1" as="geometry">
            <mxPoint x="425" y="240" as="targetPoint" />
            <Array as="points">
              <mxPoint x="425" y="110" />
            </Array>
          </mxGeometry>
        </mxCell>
        <mxCell id="9lJfcO_MAp3hbMYmv9Gh-37" style="edgeStyle=orthogonalEdgeStyle;rounded=0;orthogonalLoop=1;jettySize=auto;html=1;endArrow=oval;endFill=1;" edge="1" parent="1" source="9lJfcO_MAp3hbMYmv9Gh-38">
          <mxGeometry relative="1" as="geometry">
            <mxPoint x="435" y="280" as="targetPoint" />
            <Array as="points">
              <mxPoint x="436" y="100" />
              <mxPoint x="436" y="280" />
            </Array>
          </mxGeometry>
        </mxCell>
        <mxCell id="9lJfcO_MAp3hbMYmv9Gh-128" style="edgeStyle=orthogonalEdgeStyle;rounded=0;orthogonalLoop=1;jettySize=auto;html=1;endArrow=oval;endFill=1;" edge="1" parent="1" source="9lJfcO_MAp3hbMYmv9Gh-38">
          <mxGeometry relative="1" as="geometry">
            <mxPoint x="340" y="160" as="targetPoint" />
          </mxGeometry>
        </mxCell>
        <mxCell id="9lJfcO_MAp3hbMYmv9Gh-130" style="edgeStyle=orthogonalEdgeStyle;rounded=0;orthogonalLoop=1;jettySize=auto;html=1;endArrow=oval;endFill=1;" edge="1" parent="1" source="9lJfcO_MAp3hbMYmv9Gh-38">
          <mxGeometry relative="1" as="geometry">
            <mxPoint x="350" y="200" as="targetPoint" />
            <Array as="points">
              <mxPoint x="350" y="110" />
            </Array>
          </mxGeometry>
        </mxCell>
        <mxCell id="9lJfcO_MAp3hbMYmv9Gh-38" value="A1" style="whiteSpace=wrap;html=1;aspect=fixed;" vertex="1" parent="1">
          <mxGeometry x="360" y="80" width="40" height="40" as="geometry" />
        </mxCell>
        <mxCell id="9lJfcO_MAp3hbMYmv9Gh-41" value="" style="endArrow=none;html=1;rounded=0;" edge="1" parent="1" target="9lJfcO_MAp3hbMYmv9Gh-42">
          <mxGeometry width="50" height="50" relative="1" as="geometry">
            <mxPoint x="55" y="200" as="sourcePoint" />
            <mxPoint x="355" y="200" as="targetPoint" />
          </mxGeometry>
        </mxCell>
        <mxCell id="9lJfcO_MAp3hbMYmv9Gh-42" value="" style="shape=waypoint;sketch=0;fillStyle=solid;size=6;pointerEvents=1;points=[];fillColor=none;resizable=0;rotatable=0;perimeter=centerPerimeter;snapToPoint=1;" vertex="1" parent="1">
          <mxGeometry x="55" y="190" width="20" height="20" as="geometry" />
        </mxCell>
        <mxCell id="9lJfcO_MAp3hbMYmv9Gh-43" value="" style="endArrow=none;html=1;rounded=0;" edge="1" parent="1" target="9lJfcO_MAp3hbMYmv9Gh-44">
          <mxGeometry width="50" height="50" relative="1" as="geometry">
            <mxPoint x="55" y="160" as="sourcePoint" />
            <mxPoint x="355" y="160" as="targetPoint" />
          </mxGeometry>
        </mxCell>
        <mxCell id="9lJfcO_MAp3hbMYmv9Gh-44" value="" style="shape=waypoint;sketch=0;fillStyle=solid;size=6;pointerEvents=1;points=[];fillColor=none;resizable=0;rotatable=0;perimeter=centerPerimeter;snapToPoint=1;" vertex="1" parent="1">
          <mxGeometry x="65" y="150" width="20" height="20" as="geometry" />
        </mxCell>
        <mxCell id="9lJfcO_MAp3hbMYmv9Gh-45" value="" style="shape=waypoint;sketch=0;fillStyle=solid;size=6;pointerEvents=1;points=[];fillColor=none;resizable=0;rotatable=0;perimeter=centerPerimeter;snapToPoint=1;" vertex="1" parent="1">
          <mxGeometry x="75" y="190" width="20" height="20" as="geometry" />
        </mxCell>
        <mxCell id="9lJfcO_MAp3hbMYmv9Gh-46" value="" style="shape=waypoint;sketch=0;fillStyle=solid;size=6;pointerEvents=1;points=[];fillColor=none;resizable=0;rotatable=0;perimeter=centerPerimeter;snapToPoint=1;" vertex="1" parent="1">
          <mxGeometry x="55" y="150" width="20" height="20" as="geometry" />
        </mxCell>
        <mxCell id="9lJfcO_MAp3hbMYmv9Gh-47" value="" style="shape=waypoint;sketch=0;fillStyle=solid;size=6;pointerEvents=1;points=[];fillColor=none;resizable=0;rotatable=0;perimeter=centerPerimeter;snapToPoint=1;" vertex="1" parent="1">
          <mxGeometry x="135" y="150" width="20" height="20" as="geometry" />
        </mxCell>
        <mxCell id="9lJfcO_MAp3hbMYmv9Gh-49" value="" style="shape=waypoint;sketch=0;fillStyle=solid;size=6;pointerEvents=1;points=[];fillColor=none;resizable=0;rotatable=0;perimeter=centerPerimeter;snapToPoint=1;" vertex="1" parent="1">
          <mxGeometry x="215" y="190" width="20" height="20" as="geometry" />
        </mxCell>
        <mxCell id="9lJfcO_MAp3hbMYmv9Gh-50" value="" style="shape=waypoint;sketch=0;fillStyle=solid;size=6;pointerEvents=1;points=[];fillColor=none;resizable=0;rotatable=0;perimeter=centerPerimeter;snapToPoint=1;" vertex="1" parent="1">
          <mxGeometry x="215" y="150" width="20" height="20" as="geometry" />
        </mxCell>
        <mxCell id="9lJfcO_MAp3hbMYmv9Gh-51" value="" style="shape=waypoint;sketch=0;fillStyle=solid;size=6;pointerEvents=1;points=[];fillColor=none;resizable=0;rotatable=0;perimeter=centerPerimeter;snapToPoint=1;" vertex="1" parent="1">
          <mxGeometry x="235" y="190" width="20" height="20" as="geometry" />
        </mxCell>
        <mxCell id="9lJfcO_MAp3hbMYmv9Gh-52" value="" style="shape=waypoint;sketch=0;fillStyle=solid;size=6;pointerEvents=1;points=[];fillColor=none;resizable=0;rotatable=0;perimeter=centerPerimeter;snapToPoint=1;" vertex="1" parent="1">
          <mxGeometry x="225" y="150" width="20" height="20" as="geometry" />
        </mxCell>
        <mxCell id="9lJfcO_MAp3hbMYmv9Gh-53" value="" style="shape=waypoint;sketch=0;fillStyle=solid;size=6;pointerEvents=1;points=[];fillColor=none;resizable=0;rotatable=0;perimeter=centerPerimeter;snapToPoint=1;" vertex="1" parent="1">
          <mxGeometry x="295" y="190" width="20" height="20" as="geometry" />
        </mxCell>
        <mxCell id="9lJfcO_MAp3hbMYmv9Gh-56" value="" style="endArrow=none;html=1;rounded=0;" edge="1" parent="1">
          <mxGeometry width="50" height="50" relative="1" as="geometry">
            <mxPoint x="370" y="240" as="sourcePoint" />
            <mxPoint x="535" y="240" as="targetPoint" />
          </mxGeometry>
        </mxCell>
        <mxCell id="9lJfcO_MAp3hbMYmv9Gh-57" value="M1" style="text;html=1;align=center;verticalAlign=middle;whiteSpace=wrap;rounded=0;" vertex="1" parent="1">
          <mxGeometry x="455" y="220" width="20" height="20" as="geometry" />
        </mxCell>
        <mxCell id="9lJfcO_MAp3hbMYmv9Gh-58" value="" style="endArrow=none;html=1;rounded=0;" edge="1" parent="1">
          <mxGeometry width="50" height="50" relative="1" as="geometry">
            <mxPoint x="370" y="280" as="sourcePoint" />
            <mxPoint x="535" y="280" as="targetPoint" />
          </mxGeometry>
        </mxCell>
        <mxCell id="9lJfcO_MAp3hbMYmv9Gh-59" value="M2" style="text;html=1;align=center;verticalAlign=middle;whiteSpace=wrap;rounded=0;" vertex="1" parent="1">
          <mxGeometry x="455" y="260" width="20" height="20" as="geometry" />
        </mxCell>
        <mxCell id="9lJfcO_MAp3hbMYmv9Gh-60" style="edgeStyle=orthogonalEdgeStyle;rounded=0;orthogonalLoop=1;jettySize=auto;html=1;endArrow=oval;endFill=1;" edge="1" parent="1" source="9lJfcO_MAp3hbMYmv9Gh-64">
          <mxGeometry relative="1" as="geometry">
            <mxPoint x="500" y="240" as="targetPoint" />
            <Array as="points">
              <mxPoint x="500" y="100" />
              <mxPoint x="500" y="240" />
            </Array>
          </mxGeometry>
        </mxCell>
        <mxCell id="9lJfcO_MAp3hbMYmv9Gh-61" style="edgeStyle=orthogonalEdgeStyle;rounded=0;orthogonalLoop=1;jettySize=auto;html=1;endArrow=oval;endFill=1;" edge="1" parent="1">
          <mxGeometry relative="1" as="geometry">
            <mxPoint x="545" y="200" as="targetPoint" />
            <mxPoint x="545.0000000000002" y="120" as="sourcePoint" />
          </mxGeometry>
        </mxCell>
        <mxCell id="9lJfcO_MAp3hbMYmv9Gh-62" style="edgeStyle=orthogonalEdgeStyle;rounded=0;orthogonalLoop=1;jettySize=auto;html=1;endArrow=oval;endFill=1;" edge="1" parent="1" source="9lJfcO_MAp3hbMYmv9Gh-64">
          <mxGeometry relative="1" as="geometry">
            <mxPoint x="510" y="280" as="targetPoint" />
            <Array as="points">
              <mxPoint x="510" y="110" />
            </Array>
          </mxGeometry>
        </mxCell>
        <mxCell id="9lJfcO_MAp3hbMYmv9Gh-63" style="edgeStyle=orthogonalEdgeStyle;rounded=0;orthogonalLoop=1;jettySize=auto;html=1;endArrow=oval;endFill=1;" edge="1" parent="1" source="9lJfcO_MAp3hbMYmv9Gh-64">
          <mxGeometry relative="1" as="geometry">
            <mxPoint x="555" y="180" as="targetPoint" />
          </mxGeometry>
        </mxCell>
        <mxCell id="9lJfcO_MAp3hbMYmv9Gh-64" value="A2" style="whiteSpace=wrap;html=1;aspect=fixed;" vertex="1" parent="1">
          <mxGeometry x="535" y="80" width="40" height="40" as="geometry" />
        </mxCell>
        <mxCell id="9lJfcO_MAp3hbMYmv9Gh-65" value="" style="endArrow=none;html=1;rounded=0;entryX=0.959;entryY=0.16;entryDx=0;entryDy=0;entryPerimeter=0;" edge="1" parent="1" target="9lJfcO_MAp3hbMYmv9Gh-1">
          <mxGeometry width="50" height="50" relative="1" as="geometry">
            <mxPoint x="650" y="200" as="sourcePoint" />
            <mxPoint x="775" y="200" as="targetPoint" />
          </mxGeometry>
        </mxCell>
        <mxCell id="9lJfcO_MAp3hbMYmv9Gh-66" style="edgeStyle=orthogonalEdgeStyle;rounded=0;orthogonalLoop=1;jettySize=auto;html=1;endArrow=oval;endFill=1;" edge="1" parent="1">
          <mxGeometry relative="1" as="geometry">
            <mxPoint x="690" y="180" as="targetPoint" />
            <mxPoint x="690" y="135" as="sourcePoint" />
            <Array as="points">
              <mxPoint x="690" y="180" />
            </Array>
          </mxGeometry>
        </mxCell>
        <mxCell id="9lJfcO_MAp3hbMYmv9Gh-67" style="edgeStyle=orthogonalEdgeStyle;rounded=0;orthogonalLoop=1;jettySize=auto;html=1;endArrow=oval;endFill=1;fillColor=#d80073;strokeColor=#A50040;strokeWidth=2;" edge="1" parent="1" source="9lJfcO_MAp3hbMYmv9Gh-68">
          <mxGeometry relative="1" as="geometry">
            <mxPoint x="675" y="200" as="targetPoint" />
          </mxGeometry>
        </mxCell>
        <mxCell id="9lJfcO_MAp3hbMYmv9Gh-68" value="Pr5" style="whiteSpace=wrap;html=1;aspect=fixed;" vertex="1" parent="1">
          <mxGeometry x="655" y="95" width="40" height="40" as="geometry" />
        </mxCell>
        <mxCell id="9lJfcO_MAp3hbMYmv9Gh-69" value="Pr6" style="whiteSpace=wrap;html=1;aspect=fixed;" vertex="1" parent="1">
          <mxGeometry x="735" y="95" width="40" height="40" as="geometry" />
        </mxCell>
        <mxCell id="9lJfcO_MAp3hbMYmv9Gh-70" value="B4" style="text;html=1;align=center;verticalAlign=middle;whiteSpace=wrap;rounded=0;" vertex="1" parent="1">
          <mxGeometry x="590" y="200" width="30" height="30" as="geometry" />
        </mxCell>
        <mxCell id="9lJfcO_MAp3hbMYmv9Gh-71" value="B5" style="text;html=1;align=center;verticalAlign=middle;whiteSpace=wrap;rounded=0;" vertex="1" parent="1">
          <mxGeometry x="590" y="155" width="30" height="30" as="geometry" />
        </mxCell>
        <mxCell id="9lJfcO_MAp3hbMYmv9Gh-72" value="f1" style="text;html=1;align=center;verticalAlign=middle;whiteSpace=wrap;rounded=0;" vertex="1" parent="1">
          <mxGeometry x="35" y="370" width="20" height="30" as="geometry" />
        </mxCell>
        <mxCell id="9lJfcO_MAp3hbMYmv9Gh-73" value="" style="group" vertex="1" connectable="0" parent="1">
          <mxGeometry x="285" y="200" width="40" height="160" as="geometry" />
        </mxCell>
        <mxCell id="9lJfcO_MAp3hbMYmv9Gh-74" value="ะก4" style="whiteSpace=wrap;html=1;aspect=fixed;" vertex="1" parent="9lJfcO_MAp3hbMYmv9Gh-73">
          <mxGeometry y="40" width="40" height="40" as="geometry" />
        </mxCell>
        <mxCell id="9lJfcO_MAp3hbMYmv9Gh-75" value="D6" style="whiteSpace=wrap;html=1;aspect=fixed;" vertex="1" parent="9lJfcO_MAp3hbMYmv9Gh-73">
          <mxGeometry y="120" width="40" height="40" as="geometry" />
        </mxCell>
        <mxCell id="9lJfcO_MAp3hbMYmv9Gh-76" value="" style="endArrow=none;html=1;rounded=0;" edge="1" parent="9lJfcO_MAp3hbMYmv9Gh-73">
          <mxGeometry width="50" height="50" relative="1" as="geometry">
            <mxPoint x="20" y="40" as="sourcePoint" />
            <mxPoint x="20" as="targetPoint" />
          </mxGeometry>
        </mxCell>
        <mxCell id="9lJfcO_MAp3hbMYmv9Gh-77" value="" style="endArrow=none;html=1;rounded=0;exitX=0.5;exitY=1;exitDx=0;exitDy=0;entryX=0.5;entryY=0;entryDx=0;entryDy=0;" edge="1" parent="9lJfcO_MAp3hbMYmv9Gh-73" source="9lJfcO_MAp3hbMYmv9Gh-74" target="9lJfcO_MAp3hbMYmv9Gh-75">
          <mxGeometry width="50" height="50" relative="1" as="geometry">
            <mxPoint x="-50" y="70" as="sourcePoint" />
            <mxPoint y="20" as="targetPoint" />
          </mxGeometry>
        </mxCell>
        <mxCell id="9lJfcO_MAp3hbMYmv9Gh-78" value="f3" style="text;html=1;align=center;verticalAlign=middle;whiteSpace=wrap;rounded=0;" vertex="1" parent="1">
          <mxGeometry x="145" y="40" width="60" height="30" as="geometry" />
        </mxCell>
        <mxCell id="9lJfcO_MAp3hbMYmv9Gh-79" value="f4" style="text;html=1;align=center;verticalAlign=middle;whiteSpace=wrap;rounded=0;" vertex="1" parent="1">
          <mxGeometry x="695" y="410" width="30" height="30" as="geometry" />
        </mxCell>
        <mxCell id="9lJfcO_MAp3hbMYmv9Gh-80" value="f5" style="text;html=1;align=center;verticalAlign=middle;whiteSpace=wrap;rounded=0;" vertex="1" parent="1">
          <mxGeometry x="770" y="50" width="30" height="30" as="geometry" />
        </mxCell>
        <mxCell id="9lJfcO_MAp3hbMYmv9Gh-81" value="f6" style="text;html=1;align=center;verticalAlign=middle;whiteSpace=wrap;rounded=0;" vertex="1" parent="1">
          <mxGeometry x="410" y="380" width="60" height="30" as="geometry" />
        </mxCell>
        <mxCell id="9lJfcO_MAp3hbMYmv9Gh-82" value="" style="endArrow=none;html=1;rounded=0;exitX=0.5;exitY=0;exitDx=0;exitDy=0;entryX=0.5;entryY=1;entryDx=0;entryDy=0;fillColor=#d80073;strokeColor=#A50040;strokeWidth=2;" edge="1" parent="1" source="9lJfcO_MAp3hbMYmv9Gh-24" target="9lJfcO_MAp3hbMYmv9Gh-29">
          <mxGeometry width="50" height="50" relative="1" as="geometry">
            <mxPoint x="150" y="460" as="sourcePoint" />
            <mxPoint x="200" y="410" as="targetPoint" />
          </mxGeometry>
        </mxCell>
        <mxCell id="9lJfcO_MAp3hbMYmv9Gh-83" value="" style="endArrow=none;html=1;rounded=0;exitX=0.5;exitY=0;exitDx=0;exitDy=0;entryX=0.5;entryY=1;entryDx=0;entryDy=0;fillColor=#d80073;strokeColor=#A50040;strokeWidth=2;" edge="1" parent="1" source="9lJfcO_MAp3hbMYmv9Gh-31" target="9lJfcO_MAp3hbMYmv9Gh-20">
          <mxGeometry width="50" height="50" relative="1" as="geometry">
            <mxPoint x="360" y="290" as="sourcePoint" />
            <mxPoint x="410" y="240" as="targetPoint" />
          </mxGeometry>
        </mxCell>
        <mxCell id="9lJfcO_MAp3hbMYmv9Gh-84" value="" style="endArrow=none;html=1;rounded=0;exitX=0.5;exitY=0;exitDx=0;exitDy=0;entryX=0.5;entryY=1;entryDx=0;entryDy=0;fillColor=#d80073;strokeColor=#A50040;strokeWidth=2;" edge="1" parent="1" source="9lJfcO_MAp3hbMYmv9Gh-31" target="9lJfcO_MAp3hbMYmv9Gh-74">
          <mxGeometry width="50" height="50" relative="1" as="geometry">
            <mxPoint x="345" y="400" as="sourcePoint" />
            <mxPoint x="395" y="350" as="targetPoint" />
          </mxGeometry>
        </mxCell>
        <mxCell id="9lJfcO_MAp3hbMYmv9Gh-85" value="" style="endArrow=none;html=1;rounded=0;exitX=0.5;exitY=0;exitDx=0;exitDy=0;entryX=0.5;entryY=1;entryDx=0;entryDy=0;fillColor=#d80073;strokeColor=#A50040;strokeWidth=2;" edge="1" parent="1" source="9lJfcO_MAp3hbMYmv9Gh-75" target="9lJfcO_MAp3hbMYmv9Gh-29">
          <mxGeometry width="50" height="50" relative="1" as="geometry">
            <mxPoint x="360" y="290" as="sourcePoint" />
            <mxPoint x="410" y="240" as="targetPoint" />
          </mxGeometry>
        </mxCell>
        <mxCell id="9lJfcO_MAp3hbMYmv9Gh-86" value="" style="endArrow=none;html=1;rounded=0;exitX=0.5;exitY=0;exitDx=0;exitDy=0;entryX=0.5;entryY=1;entryDx=0;entryDy=0;fillColor=#d80073;strokeColor=#A50040;strokeWidth=2;" edge="1" parent="1" source="9lJfcO_MAp3hbMYmv9Gh-75" target="9lJfcO_MAp3hbMYmv9Gh-20">
          <mxGeometry width="50" height="50" relative="1" as="geometry">
            <mxPoint x="360" y="290" as="sourcePoint" />
            <mxPoint x="410" y="240" as="targetPoint" />
          </mxGeometry>
        </mxCell>
        <mxCell id="9lJfcO_MAp3hbMYmv9Gh-87" value="" style="endArrow=none;html=1;rounded=0;exitX=0.5;exitY=0;exitDx=0;exitDy=0;entryX=0.5;entryY=1;entryDx=0;entryDy=0;fillColor=#d80073;strokeColor=#A50040;strokeWidth=2;" edge="1" parent="1" source="9lJfcO_MAp3hbMYmv9Gh-24" target="9lJfcO_MAp3hbMYmv9Gh-74">
          <mxGeometry width="50" height="50" relative="1" as="geometry">
            <mxPoint x="360" y="290" as="sourcePoint" />
            <mxPoint x="410" y="240" as="targetPoint" />
          </mxGeometry>
        </mxCell>
        <mxCell id="9lJfcO_MAp3hbMYmv9Gh-88" value="" style="endArrow=none;html=1;rounded=0;exitX=0.5;exitY=0;exitDx=0;exitDy=0;fillColor=#d80073;strokeColor=#A50040;strokeWidth=2;" edge="1" parent="1" source="9lJfcO_MAp3hbMYmv9Gh-26">
          <mxGeometry width="50" height="50" relative="1" as="geometry">
            <mxPoint x="360" y="290" as="sourcePoint" />
            <mxPoint x="300" y="280" as="targetPoint" />
          </mxGeometry>
        </mxCell>
        <mxCell id="9lJfcO_MAp3hbMYmv9Gh-89" value="" style="endArrow=none;html=1;rounded=0;entryX=0.25;entryY=0;entryDx=0;entryDy=0;strokeWidth=2;fillColor=#d80073;strokeColor=#A50040;" edge="1" parent="1" target="9lJfcO_MAp3hbMYmv9Gh-74">
          <mxGeometry width="50" height="50" relative="1" as="geometry">
            <mxPoint x="295" y="160" as="sourcePoint" />
            <mxPoint x="300" y="250" as="targetPoint" />
          </mxGeometry>
        </mxCell>
        <mxCell id="9lJfcO_MAp3hbMYmv9Gh-90" value="" style="shape=waypoint;sketch=0;fillStyle=solid;size=6;pointerEvents=1;points=[];fillColor=#d80073;resizable=0;rotatable=0;perimeter=centerPerimeter;snapToPoint=1;fontColor=#ffffff;strokeColor=#A50040;" vertex="1" parent="1">
          <mxGeometry x="285" y="150" width="20" height="20" as="geometry" />
        </mxCell>
        <mxCell id="9lJfcO_MAp3hbMYmv9Gh-91" value="" style="endArrow=none;html=1;rounded=0;entryX=0.75;entryY=1;entryDx=0;entryDy=0;" edge="1" parent="1" source="9lJfcO_MAp3hbMYmv9Gh-93" target="9lJfcO_MAp3hbMYmv9Gh-69">
          <mxGeometry width="50" height="50" relative="1" as="geometry">
            <mxPoint x="765" y="200" as="sourcePoint" />
            <mxPoint x="640" y="150" as="targetPoint" />
          </mxGeometry>
        </mxCell>
        <mxCell id="9lJfcO_MAp3hbMYmv9Gh-92" value="" style="endArrow=none;html=1;rounded=0;entryDx=0;entryDy=0;" edge="1" parent="1" target="9lJfcO_MAp3hbMYmv9Gh-93">
          <mxGeometry width="50" height="50" relative="1" as="geometry">
            <mxPoint x="765" y="200" as="sourcePoint" />
            <mxPoint x="765" y="135" as="targetPoint" />
          </mxGeometry>
        </mxCell>
        <mxCell id="9lJfcO_MAp3hbMYmv9Gh-93" value="" style="shape=waypoint;sketch=0;fillStyle=solid;size=6;pointerEvents=1;points=[];fillColor=none;resizable=0;rotatable=0;perimeter=centerPerimeter;snapToPoint=1;" vertex="1" parent="1">
          <mxGeometry x="755" y="190" width="20" height="20" as="geometry" />
        </mxCell>
        <mxCell id="9lJfcO_MAp3hbMYmv9Gh-94" value="" style="endArrow=none;html=1;rounded=0;entryX=0.25;entryY=1;entryDx=0;entryDy=0;" edge="1" parent="1" target="9lJfcO_MAp3hbMYmv9Gh-69">
          <mxGeometry width="50" height="50" relative="1" as="geometry">
            <mxPoint x="745" y="180" as="sourcePoint" />
            <mxPoint x="640" y="150" as="targetPoint" />
          </mxGeometry>
        </mxCell>
        <mxCell id="9lJfcO_MAp3hbMYmv9Gh-95" value="" style="shape=waypoint;sketch=0;fillStyle=solid;size=6;pointerEvents=1;points=[];fillColor=none;resizable=0;rotatable=0;perimeter=centerPerimeter;snapToPoint=1;" vertex="1" parent="1">
          <mxGeometry x="735" y="170" width="20" height="20" as="geometry" />
        </mxCell>
        <mxCell id="9lJfcO_MAp3hbMYmv9Gh-96" value="" style="endArrow=none;html=1;rounded=0;exitX=0.25;exitY=0;exitDx=0;exitDy=0;fillColor=#d80073;strokeColor=#A50040;strokeWidth=2;" edge="1" parent="1" source="9lJfcO_MAp3hbMYmv9Gh-101">
          <mxGeometry width="50" height="50" relative="1" as="geometry">
            <mxPoint x="739.7549999999999" y="281.395" as="sourcePoint" />
            <mxPoint x="792" y="180" as="targetPoint" />
          </mxGeometry>
        </mxCell>
        <mxCell id="9lJfcO_MAp3hbMYmv9Gh-97" value="" style="endArrow=none;html=1;rounded=0;" edge="1" parent="1">
          <mxGeometry width="50" height="50" relative="1" as="geometry">
            <mxPoint x="535" y="200" as="sourcePoint" />
            <mxPoint x="650" y="200" as="targetPoint" />
          </mxGeometry>
        </mxCell>
        <mxCell id="9lJfcO_MAp3hbMYmv9Gh-98" style="edgeStyle=orthogonalEdgeStyle;rounded=0;orthogonalLoop=1;jettySize=auto;html=1;endArrow=oval;endFill=1;" edge="1" parent="1" source="9lJfcO_MAp3hbMYmv9Gh-99">
          <mxGeometry relative="1" as="geometry">
            <mxPoint x="722" y="200" as="targetPoint" />
          </mxGeometry>
        </mxCell>
        <mxCell id="9lJfcO_MAp3hbMYmv9Gh-99" value="ะก5" style="whiteSpace=wrap;html=1;aspect=fixed;" vertex="1" parent="1">
          <mxGeometry x="702" y="280" width="40" height="40" as="geometry" />
        </mxCell>
        <mxCell id="9lJfcO_MAp3hbMYmv9Gh-100" style="edgeStyle=orthogonalEdgeStyle;rounded=0;orthogonalLoop=1;jettySize=auto;html=1;endArrow=oval;endFill=1;" edge="1" parent="1" source="9lJfcO_MAp3hbMYmv9Gh-101">
          <mxGeometry relative="1" as="geometry">
            <mxPoint x="802" y="200" as="targetPoint" />
          </mxGeometry>
        </mxCell>
        <mxCell id="9lJfcO_MAp3hbMYmv9Gh-101" value="ะก6" style="whiteSpace=wrap;html=1;aspect=fixed;" vertex="1" parent="1">
          <mxGeometry x="782" y="280" width="40" height="40" as="geometry" />
        </mxCell>
        <mxCell id="9lJfcO_MAp3hbMYmv9Gh-102" style="edgeStyle=orthogonalEdgeStyle;rounded=0;orthogonalLoop=1;jettySize=auto;html=1;entryX=0.5;entryY=1;entryDx=0;entryDy=0;endArrow=none;endFill=0;" edge="1" parent="1" source="9lJfcO_MAp3hbMYmv9Gh-105" target="9lJfcO_MAp3hbMYmv9Gh-101">
          <mxGeometry relative="1" as="geometry" />
        </mxCell>
        <mxCell id="9lJfcO_MAp3hbMYmv9Gh-103" style="rounded=0;orthogonalLoop=1;jettySize=auto;html=1;entryX=0.5;entryY=1;entryDx=0;entryDy=0;exitX=0.5;exitY=0;exitDx=0;exitDy=0;endArrow=none;endFill=0;strokeWidth=2;fillColor=#1ba1e2;strokeColor=#006EAF;" edge="1" parent="1" source="9lJfcO_MAp3hbMYmv9Gh-105" target="9lJfcO_MAp3hbMYmv9Gh-99">
          <mxGeometry relative="1" as="geometry" />
        </mxCell>
        <mxCell id="9lJfcO_MAp3hbMYmv9Gh-104" style="rounded=0;orthogonalLoop=1;jettySize=auto;html=1;entryX=0.5;entryY=1;entryDx=0;entryDy=0;endArrow=none;endFill=0;exitX=0.5;exitY=0;exitDx=0;exitDy=0;strokeWidth=2;fillColor=#1ba1e2;strokeColor=#006EAF;" edge="1" parent="1" source="9lJfcO_MAp3hbMYmv9Gh-105" target="9lJfcO_MAp3hbMYmv9Gh-121">
          <mxGeometry relative="1" as="geometry" />
        </mxCell>
        <mxCell id="9lJfcO_MAp3hbMYmv9Gh-105" value="D8" style="whiteSpace=wrap;html=1;aspect=fixed;" vertex="1" parent="1">
          <mxGeometry x="782" y="360" width="40" height="40" as="geometry" />
        </mxCell>
        <mxCell id="9lJfcO_MAp3hbMYmv9Gh-106" value="" style="endArrow=none;html=1;rounded=0;exitX=0.5;exitY=0;exitDx=0;exitDy=0;fillColor=#d80073;strokeColor=#A50040;strokeWidth=2;" edge="1" parent="1">
          <mxGeometry width="50" height="50" relative="1" as="geometry">
            <mxPoint x="712" y="280" as="sourcePoint" />
            <mxPoint x="712" y="180" as="targetPoint" />
          </mxGeometry>
        </mxCell>
        <mxCell id="9lJfcO_MAp3hbMYmv9Gh-107" style="edgeStyle=orthogonalEdgeStyle;rounded=0;orthogonalLoop=1;jettySize=auto;html=1;endArrow=none;endFill=0;fillColor=#1ba1e2;strokeColor=#006EAF;strokeWidth=2;" edge="1" parent="1" source="9lJfcO_MAp3hbMYmv9Gh-110" target="9lJfcO_MAp3hbMYmv9Gh-99">
          <mxGeometry relative="1" as="geometry" />
        </mxCell>
        <mxCell id="9lJfcO_MAp3hbMYmv9Gh-108" style="rounded=0;orthogonalLoop=1;jettySize=auto;html=1;entryX=0.5;entryY=1;entryDx=0;entryDy=0;exitX=0.5;exitY=0;exitDx=0;exitDy=0;endArrow=none;endFill=0;fillColor=#1ba1e2;strokeColor=#006EAF;strokeWidth=2;" edge="1" parent="1" source="9lJfcO_MAp3hbMYmv9Gh-110" target="9lJfcO_MAp3hbMYmv9Gh-101">
          <mxGeometry relative="1" as="geometry" />
        </mxCell>
        <mxCell id="9lJfcO_MAp3hbMYmv9Gh-109" style="rounded=0;orthogonalLoop=1;jettySize=auto;html=1;entryX=0.5;entryY=1;entryDx=0;entryDy=0;exitX=0.5;exitY=0;exitDx=0;exitDy=0;endArrow=none;endFill=0;fillColor=#1ba1e2;strokeColor=#006EAF;strokeWidth=2;" edge="1" parent="1" source="9lJfcO_MAp3hbMYmv9Gh-110" target="9lJfcO_MAp3hbMYmv9Gh-121">
          <mxGeometry relative="1" as="geometry" />
        </mxCell>
        <mxCell id="9lJfcO_MAp3hbMYmv9Gh-110" value="D9" style="whiteSpace=wrap;html=1;aspect=fixed;fillColor=#008a00;strokeColor=#005700;fontColor=#ffffff;" vertex="1" parent="1">
          <mxGeometry x="702" y="360" width="40" height="40" as="geometry" />
        </mxCell>
        <mxCell id="9lJfcO_MAp3hbMYmv9Gh-111" value="" style="endArrow=none;html=1;rounded=0;entryDx=0;entryDy=0;entryPerimeter=0;" edge="1" parent="1" source="9lJfcO_MAp3hbMYmv9Gh-114" target="9lJfcO_MAp3hbMYmv9Gh-112">
          <mxGeometry width="50" height="50" relative="1" as="geometry">
            <mxPoint x="535" y="180" as="sourcePoint" />
            <mxPoint x="830" y="180" as="targetPoint" />
          </mxGeometry>
        </mxCell>
        <mxCell id="9lJfcO_MAp3hbMYmv9Gh-112" value="" style="shape=waypoint;sketch=0;fillStyle=solid;size=6;pointerEvents=1;points=[];fillColor=#d80073;resizable=0;rotatable=0;perimeter=centerPerimeter;snapToPoint=1;fontColor=#ffffff;strokeColor=#A50040;" vertex="1" parent="1">
          <mxGeometry x="782" y="170" width="20" height="20" as="geometry" />
        </mxCell>
        <mxCell id="9lJfcO_MAp3hbMYmv9Gh-113" value="" style="endArrow=none;html=1;rounded=0;entryDx=0;entryDy=0;entryPerimeter=0;" edge="1" parent="1" target="9lJfcO_MAp3hbMYmv9Gh-114">
          <mxGeometry width="50" height="50" relative="1" as="geometry">
            <mxPoint x="535" y="180" as="sourcePoint" />
            <mxPoint x="792" y="180" as="targetPoint" />
          </mxGeometry>
        </mxCell>
        <mxCell id="9lJfcO_MAp3hbMYmv9Gh-114" value="" style="shape=waypoint;sketch=0;fillStyle=solid;size=6;pointerEvents=1;points=[];fillColor=#d80073;resizable=0;rotatable=0;perimeter=centerPerimeter;snapToPoint=1;fontColor=#ffffff;strokeColor=#A50040;" vertex="1" parent="1">
          <mxGeometry x="702" y="170" width="20" height="20" as="geometry" />
        </mxCell>
        <mxCell id="9lJfcO_MAp3hbMYmv9Gh-115" style="rounded=0;orthogonalLoop=1;jettySize=auto;html=1;entryX=0.5;entryY=1;entryDx=0;entryDy=0;endArrow=none;endFill=0;exitX=0.5;exitY=0;exitDx=0;exitDy=0;strokeWidth=2;fillColor=#1ba1e2;strokeColor=#006EAF;" edge="1" parent="1" source="9lJfcO_MAp3hbMYmv9Gh-118" target="9lJfcO_MAp3hbMYmv9Gh-99">
          <mxGeometry relative="1" as="geometry" />
        </mxCell>
        <mxCell id="9lJfcO_MAp3hbMYmv9Gh-116" style="rounded=0;orthogonalLoop=1;jettySize=auto;html=1;entryX=0.5;entryY=1;entryDx=0;entryDy=0;exitX=0.5;exitY=0;exitDx=0;exitDy=0;endArrow=none;endFill=0;strokeWidth=2;fillColor=#1ba1e2;strokeColor=#006EAF;" edge="1" parent="1" source="9lJfcO_MAp3hbMYmv9Gh-118" target="9lJfcO_MAp3hbMYmv9Gh-101">
          <mxGeometry relative="1" as="geometry" />
        </mxCell>
        <mxCell id="9lJfcO_MAp3hbMYmv9Gh-117" style="edgeStyle=orthogonalEdgeStyle;rounded=0;orthogonalLoop=1;jettySize=auto;html=1;entryX=0.5;entryY=1;entryDx=0;entryDy=0;endArrow=none;endFill=0;strokeWidth=2;fillColor=#1ba1e2;strokeColor=#006EAF;" edge="1" parent="1" source="9lJfcO_MAp3hbMYmv9Gh-118" target="9lJfcO_MAp3hbMYmv9Gh-121">
          <mxGeometry relative="1" as="geometry" />
        </mxCell>
        <mxCell id="9lJfcO_MAp3hbMYmv9Gh-118" value="D10" style="whiteSpace=wrap;html=1;aspect=fixed;fillColor=#008a00;strokeColor=#005700;fontColor=#ffffff;" vertex="1" parent="1">
          <mxGeometry x="620" y="360" width="40" height="40" as="geometry" />
        </mxCell>
        <mxCell id="9lJfcO_MAp3hbMYmv9Gh-119" style="edgeStyle=orthogonalEdgeStyle;rounded=0;orthogonalLoop=1;jettySize=auto;html=1;endArrow=oval;endFill=1;strokeWidth=2;fillColor=#d80073;strokeColor=#A50040;" edge="1" parent="1">
          <mxGeometry relative="1" as="geometry">
            <mxPoint x="630.0299999999997" y="180" as="targetPoint" />
            <mxPoint x="629.9955172413793" y="280" as="sourcePoint" />
          </mxGeometry>
        </mxCell>
        <mxCell id="9lJfcO_MAp3hbMYmv9Gh-120" style="edgeStyle=orthogonalEdgeStyle;rounded=0;orthogonalLoop=1;jettySize=auto;html=1;endArrow=oval;endFill=1;strokeWidth=2;fillColor=#d80073;strokeColor=#A50040;" edge="1" parent="1">
          <mxGeometry relative="1" as="geometry">
            <mxPoint x="650.0299999999997" y="200" as="targetPoint" />
            <mxPoint x="649.9955172413793" y="280" as="sourcePoint" />
          </mxGeometry>
        </mxCell>
        <mxCell id="9lJfcO_MAp3hbMYmv9Gh-121" value="ะก7" style="whiteSpace=wrap;html=1;aspect=fixed;fillColor=#008a00;fontColor=#ffffff;strokeColor=#005700;" vertex="1" parent="1">
          <mxGeometry x="620" y="280" width="40" height="40" as="geometry" />
        </mxCell>
        <mxCell id="9lJfcO_MAp3hbMYmv9Gh-122" style="rounded=0;orthogonalLoop=1;jettySize=auto;html=1;exitX=0.75;exitY=0;exitDx=0;exitDy=0;endArrow=oval;endFill=1;strokeWidth=2;fillColor=#d80073;strokeColor=#A50040;" edge="1" parent="1" source="9lJfcO_MAp3hbMYmv9Gh-123">
          <mxGeometry relative="1" as="geometry">
            <mxPoint x="165" y="160" as="targetPoint" />
          </mxGeometry>
        </mxCell>
        <mxCell id="9lJfcO_MAp3hbMYmv9Gh-123" value="ะก8" style="whiteSpace=wrap;html=1;aspect=fixed;fillColor=#008a00;fontColor=#ffffff;strokeColor=#005700;" vertex="1" parent="1">
          <mxGeometry x="135" y="240" width="40" height="40" as="geometry" />
        </mxCell>
        <mxCell id="9lJfcO_MAp3hbMYmv9Gh-124" value="" style="endArrow=none;html=1;rounded=0;" edge="1" parent="1" source="9lJfcO_MAp3hbMYmv9Gh-42" target="9lJfcO_MAp3hbMYmv9Gh-125">
          <mxGeometry width="50" height="50" relative="1" as="geometry">
            <mxPoint x="65" y="200" as="sourcePoint" />
            <mxPoint x="355" y="200" as="targetPoint" />
          </mxGeometry>
        </mxCell>
        <mxCell id="9lJfcO_MAp3hbMYmv9Gh-125" value="" style="shape=waypoint;sketch=0;fillStyle=solid;size=6;pointerEvents=1;points=[];fillColor=none;resizable=0;rotatable=0;perimeter=centerPerimeter;snapToPoint=1;" vertex="1" parent="1">
          <mxGeometry x="145" y="190" width="20" height="20" as="geometry" />
        </mxCell>
        <mxCell id="9lJfcO_MAp3hbMYmv9Gh-126" style="rounded=0;orthogonalLoop=1;jettySize=auto;html=1;exitX=0.25;exitY=0;exitDx=0;exitDy=0;endArrow=oval;endFill=1;strokeWidth=2;fillColor=#d80073;strokeColor=#A50040;" edge="1" parent="1" source="9lJfcO_MAp3hbMYmv9Gh-123">
          <mxGeometry relative="1" as="geometry">
            <mxPoint x="145" y="200" as="targetPoint" />
          </mxGeometry>
        </mxCell>
        <mxCell id="9lJfcO_MAp3hbMYmv9Gh-127" style="rounded=0;orthogonalLoop=1;jettySize=auto;html=1;entryX=0.5;entryY=1;entryDx=0;entryDy=0;exitX=0.5;exitY=0;exitDx=0;exitDy=0;endArrow=none;endFill=0;strokeWidth=3;fillColor=#6a00ff;strokeColor=#3700CC;" edge="1" parent="1" source="9lJfcO_MAp3hbMYmv9Gh-75" target="9lJfcO_MAp3hbMYmv9Gh-123">
          <mxGeometry relative="1" as="geometry" />
        </mxCell>
        <mxCell id="9lJfcO_MAp3hbMYmv9Gh-132" style="edgeStyle=orthogonalEdgeStyle;rounded=0;orthogonalLoop=1;jettySize=auto;html=1;endArrow=oval;endFill=1;fillColor=#d80073;strokeColor=#A50040;strokeWidth=2;" edge="1" parent="1" source="9lJfcO_MAp3hbMYmv9Gh-131">
          <mxGeometry relative="1" as="geometry">
            <mxPoint x="340" y="200" as="targetPoint" />
          </mxGeometry>
        </mxCell>
        <mxCell id="9lJfcO_MAp3hbMYmv9Gh-133" style="edgeStyle=orthogonalEdgeStyle;rounded=0;orthogonalLoop=1;jettySize=auto;html=1;endArrow=oval;endFill=1;strokeWidth=2;fillColor=#d80073;strokeColor=#A50040;" edge="1" parent="1" source="9lJfcO_MAp3hbMYmv9Gh-131">
          <mxGeometry relative="1" as="geometry">
            <mxPoint x="360" y="160" as="targetPoint" />
            <Array as="points">
              <mxPoint x="360" y="330" />
            </Array>
          </mxGeometry>
        </mxCell>
        <mxCell id="9lJfcO_MAp3hbMYmv9Gh-134" style="rounded=0;orthogonalLoop=1;jettySize=auto;html=1;exitX=0.25;exitY=0;exitDx=0;exitDy=0;endArrow=oval;endFill=1;strokeWidth=2;fillColor=#d80073;strokeColor=#A50040;" edge="1" parent="1" source="9lJfcO_MAp3hbMYmv9Gh-131">
          <mxGeometry relative="1" as="geometry">
            <mxPoint x="380" y="280" as="targetPoint" />
          </mxGeometry>
        </mxCell>
        <mxCell id="9lJfcO_MAp3hbMYmv9Gh-135" style="edgeStyle=orthogonalEdgeStyle;rounded=0;orthogonalLoop=1;jettySize=auto;html=1;strokeWidth=2;endArrow=oval;endFill=1;fillColor=#d80073;strokeColor=#A50040;" edge="1" parent="1" source="9lJfcO_MAp3hbMYmv9Gh-131">
          <mxGeometry relative="1" as="geometry">
            <mxPoint x="390" y="240" as="targetPoint" />
          </mxGeometry>
        </mxCell>
        <mxCell id="9lJfcO_MAp3hbMYmv9Gh-131" value="A3" style="whiteSpace=wrap;html=1;aspect=fixed;fillColor=#008a00;fontColor=#ffffff;strokeColor=#005700;" vertex="1" parent="1">
          <mxGeometry x="370" y="320" width="40" height="40" as="geometry" />
        </mxCell>
        <mxCell id="9lJfcO_MAp3hbMYmv9Gh-137" style="edgeStyle=orthogonalEdgeStyle;rounded=0;orthogonalLoop=1;jettySize=auto;html=1;endArrow=oval;endFill=1;strokeWidth=2;fillColor=#d80073;strokeColor=#A50040;" edge="1" parent="1" source="9lJfcO_MAp3hbMYmv9Gh-136">
          <mxGeometry relative="1" as="geometry">
            <mxPoint x="490" y="280" as="targetPoint" />
          </mxGeometry>
        </mxCell>
        <mxCell id="9lJfcO_MAp3hbMYmv9Gh-138" style="edgeStyle=orthogonalEdgeStyle;rounded=0;orthogonalLoop=1;jettySize=auto;html=1;endArrow=oval;endFill=1;strokeWidth=2;fillColor=#d80073;strokeColor=#A50040;" edge="1" parent="1" source="9lJfcO_MAp3hbMYmv9Gh-136">
          <mxGeometry relative="1" as="geometry">
            <mxPoint x="520" y="240" as="targetPoint" />
            <Array as="points">
              <mxPoint x="540" y="260" />
              <mxPoint x="520" y="260" />
            </Array>
          </mxGeometry>
        </mxCell>
        <mxCell id="9lJfcO_MAp3hbMYmv9Gh-139" style="edgeStyle=orthogonalEdgeStyle;rounded=0;orthogonalLoop=1;jettySize=auto;html=1;endArrow=oval;endFill=1;strokeWidth=2;fillColor=#d80073;strokeColor=#A50040;" edge="1" parent="1" source="9lJfcO_MAp3hbMYmv9Gh-136">
          <mxGeometry relative="1" as="geometry">
            <mxPoint x="580" y="180" as="targetPoint" />
          </mxGeometry>
        </mxCell>
        <mxCell id="9lJfcO_MAp3hbMYmv9Gh-140" style="edgeStyle=orthogonalEdgeStyle;rounded=0;orthogonalLoop=1;jettySize=auto;html=1;exitX=0.75;exitY=0;exitDx=0;exitDy=0;endArrow=oval;endFill=1;strokeWidth=2;fillColor=#d80073;strokeColor=#A50040;" edge="1" parent="1" source="9lJfcO_MAp3hbMYmv9Gh-136">
          <mxGeometry relative="1" as="geometry">
            <mxPoint x="560" y="200" as="targetPoint" />
            <Array as="points">
              <mxPoint x="550" y="300" />
              <mxPoint x="560" y="300" />
            </Array>
          </mxGeometry>
        </mxCell>
        <mxCell id="9lJfcO_MAp3hbMYmv9Gh-136" value="A4" style="whiteSpace=wrap;html=1;aspect=fixed;fillColor=#008a00;fontColor=#ffffff;strokeColor=#005700;" vertex="1" parent="1">
          <mxGeometry x="520" y="320" width="40" height="40" as="geometry" />
        </mxCell>
      </root>
    </mxGraphModel>
  </diagram>
</mxfile>
